<svg width="96" height="96" viewBox="0 0 96 96" fill="none" xmlns="http://www.w3.org/2000/svg">
<path d="M13.9656 47.8109L30.8882 18.5L64.7335 18.5L81.6562 47.8109L64.7335 77.1218L30.8882 77.1218L13.9656 47.8109Z" stroke="#E4752D" stroke-width="2"/>
<g clip-path="url(#clip0_1_616)">
<path d="M60 47.5C60 40.5965 54.4035 35 47.5 35C40.5965 35 35 40.5965 35 47.5C35 53.7391 39.5711 58.9104 45.5469 59.8481V51.1133H42.373V47.5H45.5469V44.7461C45.5469 41.6133 47.4131 39.8828 50.2684 39.8828C51.6359 39.8828 53.0664 40.127 53.0664 40.127V43.2031H51.4902C49.9374 43.2031 49.4531 44.1667 49.4531 45.1553V47.5H52.9199L52.3657 51.1133H49.4531V59.8481C55.4289 58.9104 60 53.7392 60 47.5Z" fill="white"/>
<path d="M52.3657 51.1133L52.9199 47.5H49.4531V45.1553C49.4531 44.1666 49.9374 43.2031 51.4902 43.2031H53.0664V40.127C53.0664 40.127 51.6359 39.8828 50.2683 39.8828C47.4131 39.8828 45.5469 41.6133 45.5469 44.7461V47.5H42.373V51.1133H45.5469V59.8481C46.193 59.9494 46.846 60.0002 47.5 60C48.154 60.0002 48.807 59.9494 49.4531 59.8481V51.1133H52.3657Z" fill="#E4752D"/>
</g>
<defs>
<clipPath id="clip0_1_616">
<rect width="25" height="25" fill="white" transform="translate(35 35)"/>
</clipPath>
</defs>
</svg>
