<svg width="30" height="32" viewBox="0 0 30 32" fill="none" xmlns="http://www.w3.org/2000/svg">
<path d="M24.2716 22.6559C25.5591 21.2488 26.2504 19.6706 26.2504 17.1122C26.2504 12.6104 23.1804 8.57551 18.7129 6.58057L17.5966 8.353C21.7654 10.6734 22.5804 13.6844 22.9066 15.5829C22.2354 15.2253 21.3566 15.1006 20.4941 15.1829C18.2391 15.3977 16.4616 17.3026 16.4616 19.6706C16.4616 20.8645 16.9226 22.0096 17.743 22.8538C18.5635 23.6981 19.6763 24.1724 20.8366 24.1724C22.1779 24.1724 23.4616 23.5421 24.2716 22.6559ZM11.7716 22.6559C13.0591 21.2488 13.7504 19.6706 13.7504 17.1122C13.7504 12.6104 10.6804 8.57551 6.21289 6.58057L5.09664 8.353C9.26539 10.6734 10.0804 13.6844 10.4054 15.5829C9.73414 15.2253 8.85539 15.1006 7.99414 15.1829C5.73914 15.3964 3.96289 17.3013 3.96289 19.6706C3.96289 20.8645 4.42383 22.0096 5.2443 22.8538C6.06477 23.6981 7.17757 24.1724 8.33789 24.1724C9.67914 24.1724 10.9629 23.5421 11.7729 22.6559" fill="#E4752D"/>
</svg>
