<svg width="31" height="32" viewBox="0 0 31 32" fill="none" xmlns="http://www.w3.org/2000/svg">
<path d="M12.2705 20.6293V11.3706C12.2707 11.2547 12.302 11.1411 12.3613 11.0415C12.4205 10.942 12.5054 10.8602 12.6071 10.8047C12.7088 10.7492 12.8235 10.7221 12.9393 10.7262C13.0551 10.7304 13.1676 10.7655 13.2651 10.8281L20.4674 15.4561C20.5586 15.5146 20.6337 15.595 20.6856 15.69C20.7376 15.785 20.7648 15.8916 20.7648 15.9999C20.7648 16.1082 20.7376 16.2148 20.6856 16.3098C20.6337 16.4049 20.5586 16.4853 20.4674 16.5437L13.2651 21.173C13.1676 21.2356 13.0551 21.2708 12.9393 21.2749C12.8235 21.279 12.7088 21.2519 12.6071 21.1964C12.5054 21.141 12.4205 21.0592 12.3613 20.9596C12.302 20.86 12.2707 20.7464 12.2705 20.6305V20.6293Z" fill="white"/>
<path d="M1.29199 16.0001C1.29199 8.15321 7.65345 1.79175 15.5003 1.79175C23.3472 1.79175 29.7087 8.15321 29.7087 16.0001C29.7087 23.847 23.3472 30.2084 15.5003 30.2084C7.65345 30.2084 1.29199 23.847 1.29199 16.0001ZM15.5003 3.72925C12.2459 3.72925 9.12476 5.02206 6.82354 7.32329C4.52231 9.62452 3.22949 12.7457 3.22949 16.0001C3.22949 19.2545 4.52231 22.3756 6.82354 24.6769C9.12476 26.9781 12.2459 28.2709 15.5003 28.2709C18.7548 28.2709 21.8759 26.9781 24.1771 24.6769C26.4783 22.3756 27.7712 19.2545 27.7712 16.0001C27.7712 12.7457 26.4783 9.62452 24.1771 7.32329C21.8759 5.02206 18.7548 3.72925 15.5003 3.72925Z" fill="white"/>
</svg>
