<svg width="31" height="32" viewBox="0 0 31 32" fill="none" xmlns="http://www.w3.org/2000/svg">
<g id="outline=outline3">
<path id="Vector" d="M12.2705 20.6294V11.3707C12.2707 11.2549 12.302 11.1412 12.3613 11.0416C12.4205 10.9421 12.5054 10.8603 12.6071 10.8048C12.7088 10.7493 12.8235 10.7222 12.9393 10.7264C13.0551 10.7305 13.1676 10.7657 13.2651 10.8282L20.4674 15.4563C20.5586 15.5147 20.6337 15.5951 20.6856 15.6901C20.7376 15.7852 20.7648 15.8917 20.7648 16C20.7648 16.1084 20.7376 16.2149 20.6856 16.31C20.6337 16.405 20.5586 16.4854 20.4674 16.5438L13.2651 21.1732C13.1676 21.2357 13.0551 21.2709 12.9393 21.275C12.8235 21.2791 12.7088 21.252 12.6071 21.1966C12.5054 21.1411 12.4205 21.0593 12.3613 20.9597C12.302 20.8602 12.2707 20.7465 12.2705 20.6307V20.6294Z" fill="#2A2A2A"/>
<path id="Vector_2" d="M1.29199 16C1.29199 8.15309 7.65345 1.79163 15.5003 1.79163C23.3472 1.79163 29.7087 8.15309 29.7087 16C29.7087 23.8468 23.3472 30.2083 15.5003 30.2083C7.65345 30.2083 1.29199 23.8468 1.29199 16ZM15.5003 3.72913C12.2459 3.72913 9.12476 5.02194 6.82354 7.32317C4.52231 9.6244 3.22949 12.7455 3.22949 16C3.22949 19.2544 4.52231 22.3755 6.82354 24.6768C9.12476 26.978 12.2459 28.2708 15.5003 28.2708C18.7548 28.2708 21.8759 26.978 24.1771 24.6768C26.4783 22.3755 27.7712 19.2544 27.7712 16C27.7712 12.7455 26.4783 9.6244 24.1771 7.32317C21.8759 5.02194 18.7548 3.72913 15.5003 3.72913Z" fill="#2A2A2A"/>
</g>
</svg>
