<svg width="96" height="96" viewBox="0 0 96 96" fill="none" xmlns="http://www.w3.org/2000/svg">
<path d="M30.5003 17.5L65.5003 17.5L83.0003 47.8109L65.5003 78.1218L30.5003 78.1218L13.0003 47.8109L30.5003 17.5Z" fill="#E4752D"/>
<path d="M57.9449 53.7108L53.033 49.2448C52.801 49.0335 52.4958 48.9207 52.1821 48.9304C51.8684 48.9401 51.5708 49.0715 51.3523 49.2968L48.4607 52.2705C47.7647 52.1375 46.3655 51.7013 44.9251 50.2646C43.4848 48.8231 43.0486 47.4202 42.9193 46.729L45.8906 43.8363C46.1158 43.6177 46.2472 43.3201 46.2569 43.0064C46.2666 42.6927 46.1539 42.3876 45.9425 42.1555L41.4778 37.2448C41.2663 37.0121 40.9725 36.8709 40.6587 36.8512C40.3449 36.8316 40.0357 36.9351 39.797 37.1397L37.1749 39.3884C36.966 39.5981 36.8413 39.8771 36.8245 40.1726C36.8063 40.4747 36.4608 47.6305 42.0094 53.1815C46.85 58.0209 52.9134 58.375 54.5833 58.375C54.8274 58.375 54.9773 58.3677 55.0171 58.3653C55.3124 58.3479 55.591 58.2228 55.8001 58.0137L58.0476 55.3904C58.2531 55.1524 58.3573 54.8435 58.3381 54.5297C58.3189 54.2159 58.1778 53.922 57.9449 53.7108Z" fill="white"/>
</svg>
