<svg width="96" height="96" viewBox="0 0 96 96" fill="none" xmlns="http://www.w3.org/2000/svg">
<path d="M30.5003 17.5L65.5003 17.5L83.0003 47.8109L65.5003 78.1218L30.5003 78.1218L13.0003 47.8109L30.5003 17.5Z" fill="#E4752D"/>
<path d="M48.1895 47.375C47.3607 47.375 46.5658 47.0458 45.9797 46.4597C45.3937 45.8737 45.0645 45.0788 45.0645 44.25C45.0645 43.4212 45.3937 42.6263 45.9797 42.0403C46.5658 41.4542 47.3607 41.125 48.1895 41.125C49.0183 41.125 49.8131 41.4542 50.3992 42.0403C50.9852 42.6263 51.3145 43.4212 51.3145 44.25C51.3145 44.6604 51.2336 45.0667 51.0766 45.4459C50.9195 45.825 50.6893 46.1695 50.3992 46.4597C50.109 46.7499 49.7645 46.9801 49.3853 47.1371C49.0062 47.2942 48.5998 47.375 48.1895 47.375ZM48.1895 35.5C45.8688 35.5 43.6432 36.4219 42.0023 38.0628C40.3613 39.7038 39.4395 41.9294 39.4395 44.25C39.4395 50.8125 48.1895 60.5 48.1895 60.5C48.1895 60.5 56.9395 50.8125 56.9395 44.25C56.9395 41.9294 56.0176 39.7038 54.3766 38.0628C52.7357 36.4219 50.5101 35.5 48.1895 35.5Z" fill="white"/>
</svg>
