<svg width="30" height="32" viewBox="0 0 30 32" fill="none" xmlns="http://www.w3.org/2000/svg">
<path d="M5.72834 23.2062C4.44084 21.7991 3.74959 20.2208 3.74959 17.6625C3.74959 13.1607 6.81959 9.12582 11.2871 7.13087L12.4033 8.9033C8.23459 11.2237 7.41959 14.2347 7.09334 16.1332C7.76459 15.7756 8.64334 15.6509 9.50584 15.7332C11.7608 15.948 13.5383 17.8529 13.5383 20.2208C13.5383 21.4148 13.0774 22.5599 12.2569 23.4041C11.4365 24.2484 10.3237 24.7227 9.16334 24.7227C7.82209 24.7227 6.53834 24.0924 5.72834 23.2062ZM18.2284 23.2062C16.9409 21.7991 16.2496 20.2208 16.2496 17.6625C16.2496 13.1607 19.3196 9.12582 23.7871 7.13087L24.9034 8.9033C20.7346 11.2237 19.9196 14.2347 19.5946 16.1332C20.2659 15.7756 21.1446 15.6509 22.0059 15.7332C24.2609 15.9467 26.0371 17.8516 26.0371 20.2208C26.0371 21.4148 25.5762 22.5599 24.7557 23.4041C23.9352 24.2484 22.8224 24.7227 21.6621 24.7227C20.3209 24.7227 19.0371 24.0924 18.2271 23.2062" fill="#E4752D"/>
</svg>
