<svg width="97" height="96" viewBox="0 0 97 96" fill="none" xmlns="http://www.w3.org/2000/svg">
<path d="M14.5877 47.8109L31.5103 18.5L65.3556 18.5L82.2783 47.8109L65.3556 77.1218L31.5103 77.1218L14.5877 47.8109Z" stroke="#E4752D" stroke-width="2"/>
<g clip-path="url(#clip0_1_622)">
<path d="M63.246 38.0441C62.0994 38.5521 60.8831 38.8855 59.6377 39.0333C60.9349 38.2558 61.931 37.0246 62.4 35.5576C61.1668 36.2894 59.8176 36.805 58.4106 37.0821C57.2646 35.8612 55.6319 35.0981 53.8249 35.0981C50.3552 35.0981 47.5422 37.9111 47.5422 41.3804C47.5422 41.8729 47.5978 42.3523 47.7049 42.8123C42.4836 42.5502 37.8544 40.0491 34.7557 36.2481C34.2151 37.176 33.9052 38.2553 33.9052 39.4065C33.9052 41.5862 35.0145 43.509 36.7001 44.6357C35.7024 44.6045 34.7267 44.335 33.8544 43.8498C33.854 43.8761 33.854 43.9025 33.854 43.9289C33.854 46.9728 36.0196 49.512 38.8935 50.0892C37.9684 50.3408 36.998 50.3776 36.0564 50.1968C36.8558 52.6928 39.1761 54.509 41.9251 54.5599C39.775 56.2448 37.066 57.2492 34.1227 57.2492C33.6155 57.2492 33.1155 57.2194 32.624 57.1614C35.4043 58.944 38.7066 59.984 42.2544 59.984C53.8103 59.984 60.1293 50.4109 60.1293 42.109C60.1293 41.8365 60.1233 41.5656 60.1111 41.2962C61.341 40.4071 62.4026 39.3058 63.246 38.0441Z" fill="white"/>
</g>
<defs>
<clipPath id="clip0_1_622">
<rect width="30.625" height="25" fill="white" transform="translate(32.6221 35)"/>
</clipPath>
</defs>
</svg>
