<svg width="96" height="96" viewBox="0 0 96 96" fill="none" xmlns="http://www.w3.org/2000/svg">
<path d="M14.2088 47.8109L31.1314 18.5L64.9767 18.5L81.8994 47.8109L64.9767 77.1218L31.1314 77.1218L14.2088 47.8109Z" stroke="#E4752D" stroke-width="2"/>
<g clip-path="url(#clip0_1_627)">
<path d="M65.0174 38.8993C64.8134 38.1456 64.4156 37.4585 63.8635 36.9064C63.3115 36.3543 62.6244 35.9565 61.8707 35.7525C59.1115 35 48.0068 35 48.0068 35C48.0068 35 36.9015 35.0228 34.1424 35.7753C33.3887 35.9793 32.7016 36.3771 32.1495 36.9293C31.5974 37.4814 31.1996 38.1685 30.9957 38.9222C30.1611 43.8247 29.8374 51.295 31.0186 56.0014C31.2226 56.7551 31.6204 57.4422 32.1725 57.9943C32.7245 58.5464 33.4116 58.9442 34.1653 59.1482C36.9245 59.9007 48.0295 59.9007 48.0295 59.9007C48.0295 59.9007 59.1343 59.9007 61.8933 59.1482C62.647 58.9442 63.3341 58.5464 63.8863 57.9943C64.4384 57.4422 64.8362 56.7551 65.0402 56.0014C65.9204 51.0919 66.1917 43.6263 65.0174 38.8993Z" fill="white"/>
<path d="M44.4717 52.7859L53.6839 47.4501L44.4717 42.1143V52.7859Z" fill="#E4752D"/>
</g>
<defs>
<clipPath id="clip0_1_627">
<rect width="35.5625" height="25" fill="white" transform="translate(30.2432 35)"/>
</clipPath>
</defs>
</svg>
